<svg width="1200" height="800" viewBox="0 0 1200 800" fill="none" xmlns="http://www.w3.org/2000/svg">
<path d="M971.984 370.599C983.09 370.599 992.093 361.596 992.093 350.49C992.093 339.384 983.09 330.381 971.984 330.381C960.878 330.381 951.875 339.384 951.875 350.49C951.875 361.596 960.878 370.599 971.984 370.599Z" fill="#B924FF"/>
<path d="M684.783 436.233C694.648 436.233 700.337 428.836 699.959 421.626C699.771 417.832 699.389 415.364 699.011 413.468C692.94 387.292 671.696 367.94 646.464 367.94C616.493 367.94 592.212 395.068 592.212 428.454C592.212 461.84 616.493 488.967 646.464 488.967C665.247 488.967 678.715 482.14 688.389 471.327C693.131 466.016 692.183 457.858 686.49 453.873C681.749 450.649 675.868 451.787 671.505 455.39C667.333 458.997 659.366 466.203 646.464 466.203C631.291 466.203 618.392 453.113 615.546 435.851H684.783V436.233ZM646.276 390.895C659.932 390.895 671.696 401.517 676.059 416.124H616.493C620.857 401.33 632.617 390.895 646.276 390.895ZM593.351 379.891C593.351 374.202 589.178 369.648 583.867 368.7C567.362 366.236 551.807 372.303 542.893 383.498V381.978C542.893 374.959 537.2 370.599 531.511 370.599C525.249 370.599 520.129 375.719 520.129 381.978V474.93C520.129 481.001 524.68 486.312 530.751 486.69C537.391 487.069 542.893 481.949 542.893 475.308V427.315C542.893 406.071 558.826 388.618 580.83 391.086H583.107C588.796 390.704 593.351 385.772 593.351 379.891V379.891ZM983.363 392.034C983.363 385.772 978.243 380.652 971.984 380.652C965.722 380.652 960.602 385.772 960.602 392.034V475.308C960.602 481.57 965.722 486.69 971.984 486.69C978.243 486.69 983.363 481.57 983.363 475.308V392.034V392.034ZM814.155 329.055C814.155 322.793 809.035 317.673 802.773 317.673C796.514 317.673 791.394 322.793 791.394 329.055V379.704C783.615 371.925 773.941 368.131 762.368 368.131C732.397 368.131 708.116 395.258 708.116 428.645C708.116 462.031 732.397 489.158 762.368 489.158C773.941 489.158 783.806 485.173 791.581 477.394C792.529 482.709 797.274 486.69 802.773 486.69C809.035 486.69 814.155 481.57 814.155 475.308V329.055ZM762.559 466.582C745.105 466.582 731.068 449.701 731.068 428.645C731.068 407.779 745.105 390.704 762.559 390.704C780.012 390.704 794.05 407.588 794.05 428.645C794.05 449.701 779.821 466.582 762.559 466.582ZM932.905 329.055C932.905 322.793 927.785 317.673 921.523 317.673C915.264 317.673 910.141 322.793 910.141 329.055V379.704C902.365 371.925 892.691 368.131 881.118 368.131C851.148 368.131 826.866 395.258 826.866 428.645C826.866 462.031 851.148 489.158 881.118 489.158C892.691 489.158 902.553 485.173 910.332 477.394C911.279 482.709 916.021 486.69 921.523 486.69C927.785 486.69 932.905 481.57 932.905 475.308V329.055ZM881.118 466.582C863.665 466.582 849.631 449.701 849.631 428.645C849.631 407.779 863.665 390.704 881.118 390.704C898.571 390.704 912.609 407.588 912.609 428.645C912.609 449.701 898.571 466.582 881.118 466.582ZM1041.03 475.499V390.895H1051.09C1056.4 390.895 1061.14 386.91 1061.52 381.408C1061.9 375.528 1057.16 370.599 1051.46 370.599H1041.03V354.663C1041.03 348.591 1036.48 343.28 1030.41 342.902C1023.77 342.524 1018.27 347.644 1018.27 354.284V370.786H1008.78C1003.47 370.786 998.73 374.771 998.351 380.273C997.97 386.153 1002.71 391.086 1008.4 391.086H1018.08V475.69C1018.08 481.949 1023.2 487.069 1029.46 487.069C1036.1 486.69 1041.03 481.758 1041.03 475.499Z" fill="#B924FF"/>
<path d="M297.426 558.964C385.219 558.964 456.39 487.794 456.39 400C456.39 312.206 385.219 241.036 297.426 241.036C209.632 241.036 138.461 312.206 138.461 400C138.461 487.794 209.632 558.964 297.426 558.964Z" fill="#B924FF"/>
<path d="M403.465 400C403.465 387.101 393.034 376.857 380.322 376.857C374.064 376.857 368.371 379.322 364.198 383.307C348.265 371.925 326.449 364.527 302.168 363.58L312.79 313.879L347.314 321.276C347.696 330.003 354.902 337.021 363.82 337.021C372.925 337.021 380.322 329.624 380.322 320.516C380.322 311.411 372.925 304.014 363.82 304.014C357.37 304.014 351.678 307.808 349.022 313.31L310.516 305.152C309.377 304.961 308.239 305.152 307.479 305.722C306.531 306.291 305.962 307.238 305.774 308.377L294.01 363.767C269.351 364.527 247.156 371.925 231.032 383.498C226.69 379.35 220.913 377.039 214.908 377.048C202.009 377.048 191.766 387.479 191.766 400.191C191.766 409.674 197.455 417.64 205.425 421.247C205.043 423.521 204.856 425.798 204.856 428.266C204.856 463.926 246.399 492.952 297.617 492.952C348.835 492.952 390.378 464.117 390.378 428.266C390.378 425.989 390.187 423.521 389.809 421.247C397.775 417.64 403.465 409.483 403.465 400V400ZM244.5 416.502C244.5 407.397 251.897 400 261.006 400C270.111 400 277.508 407.397 277.508 416.502C277.508 425.607 270.111 433.008 261.006 433.008C251.897 433.195 244.5 425.607 244.5 416.502V416.502ZM336.883 460.323C325.501 471.705 303.875 472.465 297.617 472.465C291.167 472.465 269.542 471.514 258.347 460.323C256.643 458.615 256.643 455.959 258.347 454.251C260.055 452.547 262.71 452.547 264.418 454.251C271.628 461.461 286.804 463.926 297.617 463.926C308.43 463.926 323.793 461.461 330.812 454.251C332.52 452.547 335.175 452.547 336.883 454.251C338.4 455.959 338.4 458.615 336.883 460.323ZM333.846 433.195C324.741 433.195 317.344 425.798 317.344 416.693C317.344 407.588 324.741 400.191 333.846 400.191C342.954 400.191 350.352 407.588 350.352 416.693C350.352 425.607 342.954 433.195 333.846 433.195Z" fill="white"/>
</svg>
