<svg width="26" height="26" viewBox="0 0 26 26" fill="none" xmlns="http://www.w3.org/2000/svg">
<path d="M13 0.000976562C5.82 0.000976562 0 5.82098 0 13.001C0 19.49 4.754 24.867 10.969 25.843V16.759H7.668V13.001H10.969V10.136C10.969 6.87798 12.91 5.07898 15.879 5.07898C17.301 5.07898 18.789 5.33298 18.789 5.33298V8.53198H17.15C15.535 8.53198 15.031 9.53298 15.031 10.561V13H18.636L18.06 16.758H15.031V25.842C21.246 24.867 26 19.489 26 13.001C26 5.82098 20.18 0.000976562 13 0.000976562V0.000976562Z" fill="#B924FF"/>
</svg>
