<svg width="44" height="36" viewBox="0 0 44 36" fill="none" xmlns="http://www.w3.org/2000/svg">
<path d="M43.5308 4.64502C41.9177 5.35753 40.2077 5.82664 38.4568 6.03702C40.3005 4.93152 41.6805 3.19476 42.3408 1.14902C40.6054 2.17614 38.7075 2.89984 36.7288 3.28902C35.9027 2.40659 34.9039 1.7036 33.7944 1.22379C32.6849 0.74398 31.4886 0.497613 30.2798 0.500017C25.4028 0.500017 21.4458 4.45102 21.4458 9.32902C21.4458 10.023 21.5268 10.702 21.6748 11.348C14.3318 10.977 7.82082 7.46102 3.46282 2.12102C2.69882 3.42102 2.26782 4.93902 2.26782 6.56202C2.26782 9.63102 3.82882 12.33 6.19782 13.916C4.74982 13.87 3.38482 13.472 2.19482 12.812V12.92C2.19482 17.2 5.23682 20.774 9.28182 21.587C8.5226 21.7908 7.73991 21.894 6.95382 21.894C6.3965 21.894 5.84041 21.8417 5.29282 21.738C5.85783 23.4935 6.95715 25.0287 8.43716 26.129C9.91718 27.2293 11.704 27.8397 13.5478 27.875C10.417 30.3295 6.55207 31.6605 2.57382 31.654C1.86082 31.654 1.15782 31.614 0.46582 31.533C4.50704 34.1268 9.20884 35.5038 14.0108 35.5C30.2628 35.5 39.1508 22.042 39.1508 10.365C39.1508 9.98002 39.1398 9.60102 39.1238 9.22102C40.8468 7.97502 42.3488 6.42202 43.5328 4.64502H43.5308Z" fill="#B924FF"/>
</svg>
