<svg width="2007" height="368" viewBox="0 0 2007 368" fill="none" xmlns="http://www.w3.org/2000/svg">
<g filter="url(#filter0_d_425_8)">
<path fill-rule="evenodd" clip-rule="evenodd" d="M165.785 28.5774C168.523 21.7918 171.396 14.6737 174.526 7C177.617 14.2557 180.471 21.0054 183.195 27.4478C207.512 84.9662 221.471 117.983 301.966 267.859C302.662 269.154 302.915 269.441 304.56 273.238C306.458 277.034 305.984 276.085 309.306 282.255C310.729 285.102 311.679 286.526 313.666 289.574C322.472 305.903 331.723 323.037 342.052 342.052C289.674 311.813 248.907 292.993 210.968 285.569C212.23 279.852 212.973 273.696 213.135 267.288C213.978 233.265 197.655 204.235 176.693 202.461C155.726 200.686 138.026 226.846 137.183 260.864L137.141 262.54C137.079 270.523 137.953 278.209 139.597 285.281C101.244 292.495 60.0847 311.405 7 342.052C74.56 220.658 107.877 157.517 129.126 113.175C131.111 109.034 130.865 109.983 132.288 107.136C133.377 104.959 133.712 104.288 133.953 102.992C147.07 74.9594 155.477 54.1244 165.785 28.5774ZM174.112 274.728C188.207 274.728 199.634 263.302 199.634 249.206C199.634 235.111 188.207 223.685 174.112 223.685C160.017 223.685 148.591 235.111 148.591 249.206C148.591 263.302 160.017 274.728 174.112 274.728Z" fill="#D376FF"/>
</g>
<path d="M380.614 211H361.977L403.852 94.6364H424.136L466.011 211H447.375L414.477 115.773H413.568L380.614 211ZM383.739 165.432H444.193V180.205H383.739V165.432ZM479.852 211V123.727H496.272V137.591H497.181C498.772 132.894 501.575 129.201 505.59 126.511C509.643 123.784 514.227 122.42 519.34 122.42C520.401 122.42 521.651 122.458 523.09 122.534C524.568 122.61 525.723 122.705 526.556 122.818V139.068C525.874 138.879 524.662 138.67 522.92 138.443C521.177 138.178 519.435 138.045 517.693 138.045C513.677 138.045 510.098 138.898 506.954 140.602C503.848 142.269 501.386 144.598 499.568 147.591C497.749 150.545 496.84 153.917 496.84 157.705V211H479.852ZM573.294 212.761C564.847 212.761 557.575 210.848 551.476 207.023C545.416 203.159 540.756 197.837 537.499 191.057C534.241 184.277 532.613 176.511 532.613 167.761C532.613 158.898 534.279 151.076 537.613 144.295C540.946 137.477 545.643 132.155 551.703 128.33C557.764 124.504 564.904 122.591 573.124 122.591C579.753 122.591 585.662 123.822 590.851 126.284C596.041 128.708 600.226 132.117 603.408 136.511C606.628 140.905 608.541 146.038 609.147 151.909H592.613C591.703 147.818 589.62 144.295 586.363 141.341C583.143 138.386 578.825 136.909 573.408 136.909C568.673 136.909 564.525 138.159 560.965 140.659C557.442 143.121 554.696 146.644 552.726 151.227C550.756 155.773 549.772 161.152 549.772 167.364C549.772 173.727 550.738 179.22 552.669 183.841C554.601 188.462 557.328 192.042 560.851 194.58C564.412 197.117 568.597 198.386 573.408 198.386C576.628 198.386 579.544 197.799 582.158 196.625C584.809 195.413 587.025 193.689 588.806 191.455C590.624 189.22 591.893 186.53 592.613 183.386H609.147C608.541 189.03 606.703 194.068 603.635 198.5C600.567 202.932 596.457 206.417 591.306 208.955C586.192 211.492 580.188 212.761 573.294 212.761ZM642.703 159.182V211H625.714V94.6364H642.476V137.932H643.555C645.601 133.235 648.726 129.504 652.93 126.739C657.135 123.973 662.627 122.591 669.407 122.591C675.392 122.591 680.62 123.822 685.089 126.284C689.597 128.746 693.082 132.42 695.544 137.307C698.044 142.155 699.294 148.216 699.294 155.489V211H682.305V157.534C682.305 151.133 680.657 146.17 677.362 142.648C674.066 139.087 669.483 137.307 663.612 137.307C659.597 137.307 655.998 138.159 652.816 139.864C649.673 141.568 647.191 144.068 645.373 147.364C643.593 150.621 642.703 154.561 642.703 159.182ZM721.728 211V94.6364H739.285V195.886H792.012V211H721.728ZM834.474 212.932C828.944 212.932 823.944 211.909 819.474 209.864C815.005 207.78 811.463 204.769 808.849 200.83C806.274 196.89 804.986 192.061 804.986 186.341C804.986 181.417 805.933 177.364 807.827 174.182C809.721 171 812.277 168.481 815.497 166.625C818.717 164.769 822.315 163.367 826.293 162.42C830.27 161.473 834.323 160.754 838.452 160.261C843.679 159.655 847.921 159.163 851.179 158.784C854.437 158.367 856.804 157.705 858.281 156.795C859.759 155.886 860.497 154.409 860.497 152.364V151.966C860.497 147.004 859.096 143.159 856.293 140.432C853.527 137.705 849.399 136.341 843.906 136.341C838.187 136.341 833.679 137.61 830.384 140.148C827.126 142.648 824.872 145.432 823.622 148.5L807.656 144.864C809.55 139.561 812.315 135.28 815.952 132.023C819.626 128.727 823.849 126.341 828.622 124.864C833.395 123.348 838.414 122.591 843.679 122.591C847.164 122.591 850.857 123.008 854.759 123.841C858.698 124.636 862.372 126.114 865.781 128.273C869.228 130.432 872.05 133.519 874.247 137.534C876.444 141.511 877.543 146.682 877.543 153.045V211H860.952V199.068H860.27C859.171 201.265 857.524 203.424 855.327 205.545C853.13 207.667 850.308 209.428 846.861 210.83C843.414 212.231 839.285 212.932 834.474 212.932ZM838.168 199.295C842.865 199.295 846.88 198.367 850.213 196.511C853.584 194.655 856.141 192.231 857.884 189.239C859.664 186.208 860.554 182.97 860.554 179.523V168.273C859.948 168.879 858.774 169.447 857.031 169.977C855.327 170.47 853.376 170.905 851.179 171.284C848.982 171.625 846.842 171.947 844.759 172.25C842.675 172.515 840.933 172.742 839.531 172.932C836.236 173.348 833.224 174.049 830.497 175.034C827.808 176.019 825.649 177.439 824.02 179.295C822.429 181.114 821.634 183.538 821.634 186.568C821.634 190.773 823.187 193.955 826.293 196.114C829.399 198.235 833.357 199.295 838.168 199.295ZM915.559 159.182V211H898.57V123.727H914.877V137.932H915.957C917.964 133.311 921.108 129.598 925.389 126.795C929.707 123.992 935.142 122.591 941.695 122.591C947.642 122.591 952.851 123.841 957.32 126.341C961.79 128.803 965.256 132.477 967.718 137.364C970.18 142.25 971.411 148.292 971.411 155.489V211H954.423V157.534C954.423 151.208 952.775 146.265 949.48 142.705C946.184 139.106 941.658 137.307 935.9 137.307C931.961 137.307 928.457 138.159 925.389 139.864C922.358 141.568 919.953 144.068 918.173 147.364C916.43 150.621 915.559 154.561 915.559 159.182ZM1034.7 211V94.6364H1052.26V195.886H1104.99V211H1034.7ZM1122.05 211V123.727H1139.04V211H1122.05ZM1130.63 110.261C1127.68 110.261 1125.14 109.277 1123.02 107.307C1120.93 105.299 1119.89 102.913 1119.89 100.148C1119.89 97.3447 1120.93 94.9583 1123.02 92.9886C1125.14 90.9811 1127.68 89.9773 1130.63 89.9773C1133.59 89.9773 1136.1 90.9811 1138.19 92.9886C1140.31 94.9583 1141.37 97.3447 1141.37 100.148C1141.37 102.913 1140.31 105.299 1138.19 107.307C1136.1 109.277 1133.59 110.261 1130.63 110.261ZM1177.28 159.182V211H1160.3V123.727H1176.6V137.932H1177.68C1179.69 133.311 1182.83 129.598 1187.11 126.795C1191.43 123.992 1196.87 122.591 1203.42 122.591C1209.37 122.591 1214.58 123.841 1219.05 126.341C1223.52 128.803 1226.98 132.477 1229.44 137.364C1231.91 142.25 1233.14 148.292 1233.14 155.489V211H1216.15V157.534C1216.15 151.208 1214.5 146.265 1211.2 142.705C1207.91 139.106 1203.38 137.307 1197.62 137.307C1193.69 137.307 1190.18 138.159 1187.11 139.864C1184.08 141.568 1181.68 144.068 1179.9 147.364C1178.16 150.621 1177.28 154.561 1177.28 159.182ZM1309.6 174.807V123.727H1326.65V211H1309.95V195.886H1309.04C1307.03 200.545 1303.81 204.428 1299.38 207.534C1294.98 210.602 1289.51 212.136 1282.96 212.136C1277.35 212.136 1272.39 210.905 1268.07 208.443C1263.79 205.943 1260.42 202.25 1257.96 197.364C1255.53 192.477 1254.32 186.436 1254.32 179.239V123.727H1271.31V177.193C1271.31 183.14 1272.96 187.875 1276.25 191.398C1279.55 194.92 1283.83 196.682 1289.09 196.682C1292.28 196.682 1295.44 195.886 1298.58 194.295C1301.76 192.705 1304.4 190.299 1306.48 187.08C1308.6 183.86 1309.64 179.769 1309.6 174.807ZM1361.29 123.727L1380.55 157.705L1399.98 123.727H1418.56L1391.34 167.364L1418.79 211H1400.21L1380.55 178.386L1360.94 211H1342.31L1369.47 167.364L1342.65 123.727H1361.29Z" fill="#354C6F"/>
<defs>
<filter id="filter0_d_425_8" x="0" y="0" width="367.052" height="367.052" filterUnits="userSpaceOnUse" color-interpolation-filters="sRGB">
<feFlood flood-opacity="0" result="BackgroundImageFix"/>
<feColorMatrix in="SourceAlpha" type="matrix" values="0 0 0 0 0 0 0 0 0 0 0 0 0 0 0 0 0 0 127 0" result="hardAlpha"/>
<feOffset dx="9" dy="9"/>
<feGaussianBlur stdDeviation="8"/>
<feComposite in2="hardAlpha" operator="out"/>
<feColorMatrix type="matrix" values="0 0 0 0 0.768627 0 0 0 0 0.768627 0 0 0 0 0.768627 0 0 0 1 0"/>
<feBlend mode="normal" in2="BackgroundImageFix" result="effect1_dropShadow_425_8"/>
<feBlend mode="normal" in="SourceGraphic" in2="effect1_dropShadow_425_8" result="shape"/>
</filter>
</defs>
</svg>
