<svg xmlns="http://www.w3.org/2000/svg" width="319" height="30" fill="#123354"><path d="M0 29.338v-2.943L27.33 4.031H1.177V1.089h31.192v2.943L4.892 26.395h28.065v2.943zM70.689.5q3.237 0 5.444.405 2.225.386 3.66 1.195 1.435.791 2.207 2.005.772 1.214 1.122 2.851.368 1.637.423 3.697.074 2.06.074 4.561 0 2.501-.074 4.561-.055 2.06-.423 3.697-.349 1.637-1.122 2.851-.772 1.214-2.207 2.023-1.435.791-3.66 1.177-2.207.405-5.444.405h-10.63q-3.237 0-5.462-.405-2.207-.386-3.642-1.177-1.435-.809-2.225-2.023-.772-1.214-1.14-2.851-.349-1.637-.405-3.697-.055-2.06-.055-4.561 0-2.501.055-4.561.055-2.06.405-3.697.368-1.637 1.14-2.851.791-1.214 2.225-2.005 1.435-.809 3.642-1.196Q56.822.5 60.059.5zm0 26.484q2.336 0 3.936-.129 1.618-.147 2.667-.57 1.048-.423 1.618-1.214.57-.791.828-2.097.257-1.306.294-3.2.055-1.913.055-4.561 0-2.648-.055-4.543-.037-1.913-.294-3.219-.257-1.306-.828-2.097-.57-.791-1.618-1.214-1.03-.423-2.648-.552-1.6-.147-3.954-.147H60.06q-2.354 0-3.973.147-1.6.129-2.648.552-1.048.423-1.618 1.214-.57.791-.828 2.097-.257 1.306-.294 3.219-.037 1.894-.037 4.543 0 2.648.037 4.561.055 1.894.313 3.2.257 1.306.809 2.097.57.791 1.618 1.214 1.048.423 2.648.57 1.618.129 3.973.129zm76.584-25.895h3.531v28.249h-3.531zm23.588 28.249h-3.531V1.089h6.198l25.895 24.718V1.089h3.531v28.249h-4.708L170.861 4.031zM259.547.5q3.237 0 5.444.405 2.225.386 3.66 1.195 1.435.791 2.207 2.005.772 1.214 1.122 2.851.368 1.637.423 3.697.074 2.06.074 4.561 0 2.501-.074 4.561-.055 2.06-.423 3.697-.349 1.637-1.122 2.851-.772 1.214-2.207 2.023-1.435.791-3.66 1.177-2.207.405-5.444.405h-10.63q-3.237 0-5.462-.405-2.207-.386-3.642-1.177-1.435-.809-2.225-2.023-.772-1.214-1.14-2.851-.349-1.637-.405-3.697-.055-2.06-.055-4.561 0-2.501.055-4.561.055-2.06.405-3.697.368-1.637 1.14-2.851.791-1.214 2.225-2.005 1.435-.809 3.642-1.196Q245.68.5 248.917.5zm0 26.484q2.336 0 3.936-.129 1.618-.147 2.667-.57 1.048-.423 1.618-1.214.57-.791.828-2.097.257-1.306.294-3.2.055-1.913.055-4.561 0-2.648-.055-4.543-.037-1.913-.294-3.219-.257-1.306-.828-2.097-.57-.791-1.618-1.214-1.03-.423-2.648-.552-1.6-.147-3.954-.147h-10.63q-2.354 0-3.973.147-1.6.129-2.648.552-1.048.423-1.618 1.214-.57.791-.828 2.097-.257 1.306-.294 3.219-.037 1.894-.037 4.543 0 2.648.037 4.561.055 1.894.313 3.2.257 1.306.809 2.097.57.791 1.618 1.214 1.048.423 2.648.57 1.618.129 3.973.129zm46.081-13.536q2.906 0 4.984.239 2.078.239 3.494.717 1.435.46 2.281 1.159.846.699 1.306 1.6.46.883.589 1.986.147 1.104.147 2.391 0 1.287-.239 2.428-.221 1.122-.809 2.06-.589.938-1.6 1.674-1.012.736-2.575 1.251-1.563.515-3.77.773-2.189.276-5.131.276h-4.708q-2.648 0-4.635-.202-1.986-.203-3.421-.607-1.435-.423-2.373-1.048-.938-.644-1.508-1.49-.552-.864-.772-1.95-.221-1.103-.221-2.428h3.531q0 1.655.478 2.593.478.938 1.582 1.416 1.103.46 2.887.589 1.802.11 4.451.11h4.708q3.09 0 5.131-.294 2.041-.294 3.255-.938 1.214-.644 1.71-1.674.497-1.048.497-2.538 0-1.49-.349-2.483-.331-.993-1.343-1.582-.993-.589-2.814-.828-1.821-.258-4.763-.258h-4.855q-3.237 0-5.554-.239-2.299-.239-3.862-.681-1.563-.46-2.501-1.122-.938-.68-1.435-1.545-.478-.864-.625-1.913-.147-1.067-.147-2.299 0-1.287.221-2.391.239-1.103.864-1.986.625-.901 1.71-1.6 1.085-.699 2.777-1.159 1.71-.478 4.101-.717Q298.713.5 301.95.5h3.531q2.648 0 4.635.202 1.986.184 3.421.607 1.435.405 2.373 1.03.956.607 1.508 1.471.57.846.791 1.931.221 1.085.221 2.409h-3.531q0-1.655-.478-2.593-.478-.938-1.582-1.398-1.103-.478-2.906-.588-1.802-.129-4.451-.129h-3.531q-3.531 0-5.812.257-2.281.239-3.605.828-1.324.588-1.839 1.582-.515.993-.515 2.483 0 .919.129 1.637.129.717.515 1.269.405.533 1.122.901.717.368 1.894.607 1.177.239 2.869.349 1.71.093 4.065.093zM98.967 1.089v2.943h19.991l3.954.054c1.079.036 1.968.122 2.667.257.699.123 1.238.301 1.618.534a2.04 2.04 0 0 1 .828.938c.184.392.288.877.312 1.453l.055 2.06-.055 2.225c-.024.613-.128 1.141-.312 1.582a2.3 2.3 0 0 1-.828 1.067c-.38.27-.92.478-1.618.625s-1.588.251-2.667.313l-3.954.074H98.967v14.125h3.531V18.156h14.734l11.99 11.182h5.177l-12.085-11.27 2.087-.17c1.484-.171 2.703-.423 3.66-.754.969-.331 1.71-.742 2.225-1.232a4.44 4.44 0 0 0 1.141-1.729c.245-.662.386-1.398.423-2.207l.073-2.648-.055-2.52c-.024-.76-.135-1.447-.331-2.06s-.509-1.146-.938-1.6c-.417-.454-1.018-.834-1.802-1.141s-1.784-.533-2.998-.68c-1.202-.159-2.679-.239-4.432-.239z"/></svg>